<?xml version="1.0" encoding="UTF-8"?>
<svg id="Layer_2" data-name="Layer 2" xmlns="http://www.w3.org/2000/svg" viewBox="0 0 130.84 133.17">
  <defs>
    <style>
      .cls-1 {
        fill: #201e5c;
      }

      .cls-1, .cls-2, .cls-3 {
        opacity: .57;
      }

      .cls-4 {
        stroke-linecap: round;
        stroke-linejoin: round;
      }

      .cls-4, .cls-5 {
        stroke: #231f20;
      }

      .cls-4, .cls-5, .cls-6 {
        fill: none;
      }

      .cls-5 {
        stroke-miterlimit: 10;
        stroke-width: .25px;
      }

      .cls-2 {
        fill: #f26956;
      }

      .cls-3 {
        fill: #fff89f;
      }

      .cls-7 {
        fill: #231f20;
        font-size: 12px;
      }

      .cls-7, .cls-8, .cls-9, .cls-10 {
        font-family: OpenSans-SemiBold, 'Open Sans';
        font-variation-settings: 'wght' 600, 'wdth' 100;
        font-weight: 600;
      }

      .cls-8 {
        fill: #fff;
      }

      .cls-8, .cls-10 {
        font-size: 9px;
      }

      .cls-9 {
        fill: #3b3b3c;
        font-size: 6px;
        letter-spacing: -.06em;
      }

      .cls-10 {
        fill: #242424;
      }
    </style>
  </defs>
  <g id="Layer_1-2" data-name="Layer 1">
    <polyline class="cls-4" points="13.88 65.53 19.55 65.53 22.9 65.53"/>
    <polyline class="cls-4" points="112.58 65.53 115.93 65.53 121.6 65.53"/>
    <line class="cls-4" x1="36.03" y1="97.24" x2="33.56" y2="99.71"/>
    <line class="cls-4" x1="101.71" y1="31.56" x2="99.45" y2="33.82"/>
    <polyline class="cls-4" points="67.74 11.67 67.74 17.55 67.74 20.69"/>
    <polyline class="cls-4" points="67.74 110.37 67.74 113.93 67.74 119.39"/>
    <line class="cls-4" x1="101.92" y1="99.71" x2="99.45" y2="97.24"/>
    <line class="cls-4" x1="36.03" y1="33.82" x2="33.78" y2="31.57"/>
    <line class="cls-4" x1="24.42" y1="77.14" x2="21.13" y2="78.02"/>
    <line class="cls-4" x1="114.24" y1="53.07" x2="111.06" y2="53.93"/>
    <polyline class="cls-4" points="21.09 92.47 25.91 89.68 28.9 87.96"/>
    <polyline class="cls-4" points="114.38 38.6 109.39 41.49 106.58 43.11"/>
    <line class="cls-4" x1="45.32" y1="104.37" x2="43.55" y2="107.43"/>
    <line class="cls-4" x1="91.75" y1="23.94" x2="90.17" y2="26.69"/>
    <line class="cls-4" x1="56.14" y1="108.85" x2="55.22" y2="112.28"/>
    <line class="cls-4" x1="80.17" y1="19.17" x2="79.35" y2="22.21"/>
    <line class="cls-4" x1="80.27" y1="112.28" x2="79.35" y2="108.85"/>
    <line class="cls-4" x1="56.14" y1="22.21" x2="55.32" y2="19.17"/>
    <line class="cls-4" x1="101.92" y1="99.71" x2="99.45" y2="97.24"/>
    <line class="cls-4" x1="36.03" y1="33.82" x2="33.78" y2="31.57"/>
    <line class="cls-4" x1="91.93" y1="107.43" x2="90.16" y2="104.37"/>
    <line class="cls-4" x1="45.31" y1="26.69" x2="43.73" y2="23.95"/>
    <polyline class="cls-4" points="114.39 92.46 109.58 89.68 106.58 87.95"/>
    <polyline class="cls-4" points="28.9 43.1 26.1 41.49 21.1 38.6"/>
    <line class="cls-4" x1="114.35" y1="78.02" x2="111.06" y2="77.14"/>
    <line class="cls-4" x1="24.42" y1="53.93" x2="21.24" y2="53.07"/>
    <text class="cls-7" transform="translate(60.86 10.28)"><tspan x="0" y="0">00</tspan></text>
    <text class="cls-7" transform="translate(123.98 69.37)"><tspan x="0" y="0">6</tspan></text>
    <text class="cls-7" transform="translate(60.87 129.9)"><tspan x="0" y="0">12</tspan></text>
    <text class="cls-7" transform="translate(0 69.37)"><tspan x="0" y="0">18</tspan></text>
    <text class="cls-7" transform="translate(6.34 40.86)"><tspan x="0" y="0">20</tspan></text>
    <text class="cls-7" transform="translate(116.16 39.13)"><tspan x="0" y="0">4</tspan></text>
    <text class="cls-7" transform="translate(115.02 97.24)"><tspan x="0" y="0">8</tspan></text>
    <text class="cls-7" transform="translate(6.34 98.48)"><tspan x="0" y="0">16</tspan></text>
    <path class="cls-3" d="m106.58,87.95c-1.97,3.41-4.37,6.53-7.13,9.29-2.76,2.76-5.88,5.16-9.29,7.13-3.35,1.94-6.98,3.46-10.81,4.48-3.7.99-7.59,1.52-11.61,1.52s-7.9-.53-11.6-1.52c-3.83-1.02-7.46-2.54-10.82-4.48-3.4-1.97-6.53-4.37-9.29-7.13s-5.16-5.88-7.13-9.28l38.83-22.42h.04l38.81,22.41Z"/>
    <path class="cls-1" d="m106.58,43.11l-38.82,22.42h-.03s-38.83-22.43-38.83-22.43c1.97-3.4,4.37-6.52,7.13-9.28s5.88-5.16,9.28-7.13c3.36-1.94,6.99-3.46,10.83-4.48,3.7-.99,7.59-1.52,11.6-1.52s7.91.53,11.61,1.52c3.83,1.02,7.47,2.54,10.82,4.48,3.4,1.97,6.52,4.37,9.28,7.13,2.76,2.76,5.16,5.89,7.13,9.29Z"/>
    <path class="cls-2" d="m67.76,65.53l38.82-22.42c1.94,3.36,3.46,6.99,4.48,10.82.99,3.7,1.52,7.59,1.52,11.6s-.53,7.91-1.52,11.61c-1.02,3.83-2.54,7.46-4.48,10.81l-38.81-22.41h-.02"/>
    <path class="cls-2" d="m67.74,65.53h0s-.01,0-.01,0l-38.83,22.42c-1.94-3.35-3.46-6.99-4.48-10.82-.99-3.7-1.52-7.59-1.52-11.61s.53-7.9,1.52-11.6c1.02-3.84,2.54-7.47,4.48-10.83l38.83,22.42h.01Z"/>
    <line class="cls-6" x1="28.9" y1="87.96" x2="21.7" y2="92.12"/>
    <line class="cls-6" x1="106.58" y1="87.95" x2="110.51" y2="90.22"/>
    <line class="cls-6" x1="28.9" y1="43.1" x2="27.21" y2="42.13"/>
    <circle class="cls-5" cx="67.73" cy="65.51" r="44.82"/>
    <text class="cls-8" transform="translate(53.77 45.16)"><tspan x="0" y="0">Noche</tspan></text>
    <text class="cls-10" transform="translate(60.59 94.77)"><tspan x="0" y="0">Día</tspan></text>
    <text class="cls-9" transform="translate(26.21 68.24)"><tspan x="0" y="0">Crepuscular</tspan></text>
    <text class="cls-9" transform="translate(76.31 67.38)"><tspan x="0" y="0">Crepuscular</tspan></text>
  </g>
</svg>